<svg xmlns="http://www.w3.org/2000/svg" width="101" height="207" viewBox="0 0 101 207" fill="none"><g clip-path="url(#clip0_4_39)"><path d="M62.402 195.054C89.1459 183.972 105.265 161.567 98.404 145.01C91.5435 128.454 64.3017 124.016 37.5578 135.098C10.8139 146.18 -5.30472 168.586 1.5558 185.142C8.41633 201.698 35.6581 206.136 62.402 195.054Z" fill="#F7DE61"></path><path d="M99.9532 152.071C99.5424 157.023 95.7771 162.432 92.1258 167.863C78.9584 187.488 48.5389 200.884 24.3265 197.712C13.6694 196.32 5.97892 191.938 1.82562 185.8C1.64305 186.028 4.15329 198.351 14.605 203.12C26.2662 208.415 48.6758 209.328 68.9403 199.104C96.8724 184.978 98.9719 170.328 99.976 167.292C101.87 161.428 100.159 152.163 99.9532 152.071Z" fill="#B27E09"></path><path d="M60.3669 190.142C82.7213 180.879 96.193 162.148 90.4566 148.304C84.7202 134.461 61.948 130.748 39.5935 140.011C17.239 149.274 3.7674 168.006 9.5038 181.849C15.2402 195.693 38.0124 199.406 60.3669 190.142Z" fill="#E9B522"></path><path d="M26.084 200.678C1.8716 197.506 -7.09681 178.953 6.07054 159.328C19.2607 139.702 49.6803 126.307 73.8927 129.456C98.1051 132.628 107.073 151.158 93.8833 170.806C80.6931 190.455 50.2736 203.828 26.084 200.678ZM69.9676 135.298C49.7259 132.651 24.304 143.856 13.2818 160.263C2.25954 176.694 9.74462 192.189 29.9863 194.836C50.2279 197.483 75.6498 186.279 86.6721 169.871C97.7171 153.44 90.2092 137.945 69.9676 135.298Z" fill="#F7DE61"></path><path d="M8.76338 159.67C21.7025 140.41 51.2321 127.151 75.2163 129.662C74.7827 129.593 74.3491 129.525 73.8927 129.479C49.6803 126.307 19.2607 139.703 6.07058 159.328C-7.11959 178.954 1.84881 197.507 26.0612 200.679C26.5176 200.747 26.9512 200.793 27.4076 200.838C4.22213 197.164 -4.17577 178.954 8.76338 159.67Z" fill="#FFF2BD"></path><path d="M69.9679 135.298C69.58 135.252 69.192 135.207 68.7813 135.161C88.1329 138.242 95.1388 153.463 84.3448 169.551C73.5279 185.64 48.8819 196.73 28.8456 194.654C29.2336 194.722 29.6215 194.768 30.0095 194.814C50.2511 197.461 75.673 186.256 86.6953 169.848C97.7175 153.44 90.2096 137.945 69.9679 135.298Z" fill="#CE9811"></path></g><g clip-path="url(#clip1_4_39)"><path d="M79.0285 34.3296C79.2339 15.5674 65.1183 0.201288 47.5004 0.00840378C29.8825 -0.184481 15.4338 14.8689 15.2284 33.6311C15.023 52.3933 29.1386 67.7594 46.7565 67.9523C64.3744 68.1452 78.8231 53.0918 79.0285 34.3296Z" fill="#B27E09"></path><path d="M70.5689 34.3254C70.741 18.6419 58.9394 5.79675 44.2094 5.6351C29.4794 5.47345 17.3988 18.0565 17.2267 33.7401C17.0546 49.4236 28.8561 62.2687 43.5861 62.4304C58.3162 62.592 70.3967 50.009 70.5689 34.3254Z" fill="#E9B522"></path><path d="M32.8519 65.9115C16.3411 59.4486 7.88841 39.8791 13.9731 22.2994C20.0741 4.71973 38.4596 -4.32501 54.9539 2.13787C71.4647 8.61719 79.9339 28.1703 73.8328 45.75C67.7317 63.3461 49.3462 72.3744 32.8519 65.9115ZM53.145 7.36738C39.3477 1.97342 23.9716 9.52167 18.8901 24.2235C13.7922 38.9253 20.8799 55.2881 34.6773 60.682C48.4746 66.0924 63.8507 58.5277 68.9322 43.8259C74.0137 29.1405 66.9423 12.7778 53.145 7.36738Z" fill="#F7DE61"></path><path d="M15.7984 23.023C21.7844 5.75577 39.6108 -3.27253 55.8584 2.51611C55.5624 2.38455 55.25 2.26943 54.954 2.13787C38.4596 -4.32501 20.0741 4.71973 13.9731 22.2994C7.88841 39.8791 16.3411 59.4486 32.8519 65.9115C33.1644 66.0266 33.4604 66.1417 33.7728 66.2569C17.8705 59.4322 9.81247 40.2738 15.7984 23.023Z" fill="#FFF2BD"></path><path d="M53.1446 7.3673C52.8815 7.26863 52.6019 7.16996 52.3388 7.07129C65.6099 12.7777 72.3195 28.7951 67.3202 43.2009C62.3374 57.6232 47.4546 65.1714 33.8711 60.353C34.1342 60.4681 34.3973 60.5833 34.6605 60.6819C48.4578 66.0923 63.8339 58.5276 68.9153 43.8258C74.0133 29.1405 66.942 12.7777 53.1446 7.3673Z" fill="#CE9811"></path></g><defs><clipPath id="clip0_4_39"><rect width="100.843" height="78" fill="white" transform="translate(0 129)"></rect></clipPath><clipPath id="clip1_4_39"><rect width="67.0297" height="68" fill="white" transform="translate(12)"></rect></clipPath></defs></svg>