<svg xmlns="http://www.w3.org/2000/svg" width="189" height="197" viewBox="0 0 189 197" fill="none"><g clip-path="url(#clip0_4_38)"><path d="M97.8351 34.7975C98.1192 19.1048 78.4492 6.02317 53.9009 5.57884C29.3527 5.1345 9.22212 17.4957 8.93807 33.1884C8.65403 48.8811 28.3241 61.9627 52.8723 62.4071C77.4205 62.8514 97.5511 50.4902 97.8351 34.7975Z" fill="#E9B522"></path><path d="M52.7726 67.9602C23.4775 67.4196 -0.10268 51.7682 0.231973 33.0276C0.566627 14.287 24.6874 -0.515015 54.0082 0.0255793C83.329 0.540431 106.883 16.2177 106.549 34.9582C106.214 53.6731 82.0934 68.5008 52.7726 67.9602ZM53.9052 5.58598C29.3983 5.14835 9.24187 17.5305 8.95871 33.182C8.67554 48.8335 28.3944 61.9365 52.9013 62.3998C77.4082 62.8375 97.5904 50.4553 97.8736 34.8038C98.131 19.1266 78.4122 6.0236 53.9052 5.58598Z" fill="#F7DE61"></path><path d="M3.47554 33.0791C3.81019 14.6989 27.0557 0.102821 55.63 0.0513355C55.0894 0.025593 54.5488 0.025593 54.0082 -0.000149616C24.6874 -0.515001 0.566627 14.287 0.231973 33.0276C-0.10268 51.7682 23.4775 67.4197 52.7726 67.9603C53.3132 67.9603 53.8538 67.9603 54.3944 67.9603C25.8458 66.9048 3.14088 51.4593 3.47554 33.0791Z" fill="#FFF2BD"></path><path d="M53.9053 5.58594C53.4419 5.58594 52.9528 5.58594 52.4894 5.58594C76.327 6.48693 95.2736 19.384 94.9904 34.7523C94.733 50.0949 75.3231 62.2968 51.4597 62.3483C51.9231 62.3741 52.4122 62.3741 52.8756 62.3998C77.3825 62.8374 97.5647 50.4552 97.8478 34.8038C98.131 19.1265 78.4122 6.02356 53.9053 5.58594Z" fill="#CE9811"></path><path d="M106.291 45.9759H106.368L106.574 34.958C106.24 53.6986 82.1188 68.5006 52.798 67.96C23.4772 67.4194 -0.102963 51.7679 0.23169 33.0273C0.23169 33.0273 6.8841e-06 45.1521 6.8841e-06 45.7184C-0.308904 62.9917 23.297 77.459 52.5921 77.9996C81.9129 78.5145 106.008 64.8967 106.317 47.6491C106.343 47.0828 106.317 46.5165 106.291 45.9759Z" fill="#B27E09"></path></g><g clip-path="url(#clip1_4_38)"><path d="M181.291 159.336C181.539 145.655 164.39 134.25 142.989 133.863C121.588 133.476 104.039 144.252 103.791 157.933C103.543 171.614 120.691 183.018 142.093 183.405C163.494 183.793 181.043 173.016 181.291 159.336Z" fill="#E9B522"></path><path d="M142.006 188.247C116.467 187.776 95.9096 174.131 96.2013 157.793C96.4931 141.455 117.521 128.551 143.083 129.022C168.645 129.471 189.18 143.138 188.888 159.476C188.596 175.792 167.568 188.719 142.006 188.247ZM142.993 133.87C121.628 133.488 104.056 144.283 103.809 157.928C103.562 171.573 120.753 182.996 142.118 183.4C163.483 183.781 181.078 172.987 181.325 159.342C181.549 145.674 164.358 134.251 142.993 133.87Z" fill="#F7DE61"></path><path d="M99.029 157.838C99.3208 141.814 119.586 129.089 144.497 129.045C144.026 129.022 143.554 129.022 143.083 129C117.521 128.551 96.4931 141.455 96.2013 157.793C95.9096 174.131 116.467 187.776 142.006 188.247C142.477 188.247 142.949 188.247 143.42 188.247C118.531 187.327 98.7373 173.862 99.029 157.838Z" fill="#FFF2BD"></path><path d="M142.993 133.87C142.589 133.87 142.163 133.87 141.759 133.87C162.541 134.655 179.058 145.899 178.811 159.297C178.587 172.672 161.665 183.31 140.861 183.355C141.265 183.377 141.692 183.377 142.096 183.4C163.461 183.781 181.055 172.986 181.302 159.342C181.549 145.674 164.358 134.251 142.993 133.87Z" fill="#CE9811"></path><path d="M188.664 169.081H188.731L188.911 159.476C188.619 175.814 167.59 188.718 142.029 188.247C116.467 187.776 95.9099 174.131 96.2017 157.793C96.2017 157.793 95.9997 168.363 95.9997 168.857C95.7304 183.916 116.31 196.528 141.849 197C167.411 197.448 188.417 185.576 188.686 170.54C188.709 170.046 188.686 169.553 188.664 169.081Z" fill="#B27E09"></path></g><defs><clipPath id="clip0_4_38"><rect width="106.549" height="78" fill="white"></rect></clipPath><clipPath id="clip1_4_38"><rect width="92.8885" height="68" fill="white" transform="translate(96 129)"></rect></clipPath></defs></svg>