<svg xmlns="http://www.w3.org/2000/svg" width="625" height="163" viewBox="0 0 625 163" fill="none"><path d="M55.424 135.176C47.3173 134.92 38.1867 134.109 28.032 132.744C17.8773 131.293 9.13067 129.715 1.792 128.008V87.56C8.02133 92.168 16.2133 95.6667 26.368 98.056C36.608 100.445 46.8907 101.64 57.216 101.64C68.992 101.64 74.88 100.317 74.88 97.672C74.88 96.3067 73.3867 95.4107 70.4 94.984C67.4133 94.472 62.464 94.0453 55.552 93.704C45.568 93.2773 37.0347 92.552 29.952 91.528C22.9547 90.504 16.8107 88.328 11.52 85C6.31467 81.5867 3.712 76.6373 3.712 70.152C3.712 61.3627 8.40533 54.6213 17.792 49.928C27.1787 45.1493 39.7227 42.4613 55.424 41.864V27.656H64.896V41.736C72.4053 41.8213 80.128 42.4613 88.064 43.656C96 44.8507 102.699 46.1733 108.16 47.624V86.408C103.467 83.5067 96.9813 81.1173 88.704 79.24C80.512 77.2773 72.3627 76.296 64.256 76.296C59.136 76.296 54.912 76.6373 51.584 77.32C48.256 78.0027 46.592 79.112 46.592 80.648C46.592 82.696 48.4693 84.104 52.224 84.872C56.064 85.5547 62.0373 86.1093 70.144 86.536C80.0427 87.048 88.192 87.816 94.592 88.84C100.992 89.7787 106.539 91.784 111.232 94.856C116.011 97.928 118.4 102.451 118.4 108.424C118.4 117.299 113.579 123.869 103.936 128.136C94.3787 132.317 81.3653 134.621 64.896 135.048V149.256H55.424V135.176ZM141.37 133V98.696H160.186C161.893 98.696 163.386 98.0987 164.666 96.904C165.946 95.624 166.586 94.088 166.586 92.296V72.456H163.642C162.021 72.456 160.911 73.0533 160.314 74.248C159.717 75.3573 159.418 76.8933 159.418 78.856V92.296H122.81V43.4H246.842V92.296H210.106V78.856C210.106 76.808 209.807 75.2293 209.21 74.12C208.613 73.0107 207.503 72.456 205.882 72.456H203.066V92.296C203.066 94.088 203.663 95.624 204.858 96.904C206.138 98.0987 207.674 98.696 209.466 98.696H228.282V133H141.37ZM309.663 134.92C300.276 134.92 290.335 134.024 279.839 132.232C269.428 130.44 260.34 128.093 252.575 125.192V85.256C258.207 90.2053 266.442 94.1307 277.279 97.032C288.116 99.9333 299.338 101.384 310.943 101.384C315.892 101.384 319.86 101.085 322.847 100.488C325.834 99.8053 327.327 98.6107 327.327 96.904C327.327 94.856 325.492 93.5333 321.823 92.936C318.239 92.2533 312.436 91.784 304.415 91.528C294.09 91.272 285.386 90.632 278.303 89.608C271.306 88.584 265.204 86.28 259.999 82.696C254.879 79.112 252.319 73.6933 252.319 66.44C252.319 61.1493 253.855 56.6267 256.927 52.872C260.084 49.1173 264.266 46.3013 269.471 44.424C274.762 42.4613 280.65 41.48 287.135 41.48C294.73 41.48 301.514 42.8453 307.487 45.576C313.546 48.2213 318.239 51.8053 321.567 56.328C324.895 60.7653 326.559 65.544 326.559 70.664H329.247L329.375 43.4H366.367V84.744H329.247C329.247 81.7573 327.156 79.5813 322.975 78.216C318.794 76.7653 313.802 76.04 307.999 76.04C303.818 76.04 300.447 76.5093 297.887 77.448C295.327 78.3867 294.047 79.5813 294.047 81.032C294.047 82.824 295.796 84.0187 299.295 84.616C302.879 85.128 308.895 85.5973 317.343 86.024C327.668 86.4507 336.372 87.176 343.455 88.2C350.538 89.1387 356.682 91.1867 361.887 94.344C367.092 97.416 369.695 102.024 369.695 108.168C369.695 117.469 363.935 124.253 352.415 128.52C340.895 132.787 326.644 134.92 309.663 134.92ZM374.09 133V98.696H381.258C382.965 98.696 384.458 98.0987 385.738 96.904C387.018 95.624 387.658 94.088 387.658 92.296V84.104C387.658 82.312 387.018 80.8187 385.738 79.624C384.458 78.344 382.965 77.704 381.258 77.704H373.45V43.4H443.85V77.704H431.306C429.599 77.704 428.106 78.344 426.826 79.624C425.546 80.8187 424.906 82.312 424.906 84.104V98.696H442.954C444.831 98.696 446.367 98.0987 447.562 96.904C448.757 95.7093 449.354 93.9173 449.354 91.528V82.952H486.474V133H374.09ZM492.825 133V98.696H499.609C501.145 98.696 502.553 98.2693 503.833 97.416C505.113 96.4773 506.18 95.2827 507.033 93.832L512.409 84.488C513.518 82.5253 513.518 80.904 512.409 79.624C511.3 78.344 509.636 77.704 507.417 77.704H502.937V43.4H579.993C581.273 43.4 582.51 43.784 583.705 44.552C584.9 45.32 585.796 46.3867 586.393 47.752L608.025 93.832C608.708 95.368 609.732 96.5627 611.097 97.416C612.462 98.2693 613.913 98.696 615.449 98.696H621.337V133H558.745V98.696H565.017C566.809 98.696 568.046 98.3973 568.729 97.8C569.497 97.1173 569.54 96.136 568.857 94.856L567.577 92.552H543.513L542.233 94.856C541.55 96.136 541.55 97.1173 542.233 97.8C543.001 98.3973 544.281 98.696 546.073 98.696H552.345V133H492.825ZM544.409 86.152H562.585L559.001 80.52C557.124 77.448 555.673 74.2907 554.649 71.048H552.345C550.98 74.7173 549.486 77.8747 547.865 80.52L544.409 86.152Z" fill="#FF2C00"></path><path d="M55.424 130.176C47.3173 129.92 38.1867 129.109 28.032 127.744C17.8773 126.293 9.13067 124.715 1.792 123.008V82.56C8.02133 87.168 16.2133 90.6667 26.368 93.056C36.608 95.4453 46.8907 96.64 57.216 96.64C68.992 96.64 74.88 95.3173 74.88 92.672C74.88 91.3067 73.3867 90.4107 70.4 89.984C67.4133 89.472 62.464 89.0453 55.552 88.704C45.568 88.2773 37.0347 87.552 29.952 86.528C22.9547 85.504 16.8107 83.328 11.52 80C6.31467 76.5867 3.712 71.6373 3.712 65.152C3.712 56.3627 8.40533 49.6213 17.792 44.928C27.1787 40.1493 39.7227 37.4613 55.424 36.864V22.656H64.896V36.736C72.4053 36.8213 80.128 37.4613 88.064 38.656C96 39.8507 102.699 41.1733 108.16 42.624V81.408C103.467 78.5067 96.9813 76.1173 88.704 74.24C80.512 72.2773 72.3627 71.296 64.256 71.296C59.136 71.296 54.912 71.6373 51.584 72.32C48.256 73.0027 46.592 74.112 46.592 75.648C46.592 77.696 48.4693 79.104 52.224 79.872C56.064 80.5547 62.0373 81.1093 70.144 81.536C80.0427 82.048 88.192 82.816 94.592 83.84C100.992 84.7787 106.539 86.784 111.232 89.856C116.011 92.928 118.4 97.4507 118.4 103.424C118.4 112.299 113.579 118.869 103.936 123.136C94.3787 127.317 81.3653 129.621 64.896 130.048V144.256H55.424V130.176ZM141.37 128V93.696H160.186C161.893 93.696 163.386 93.0987 164.666 91.904C165.946 90.624 166.586 89.088 166.586 87.296V67.456H163.642C162.021 67.456 160.911 68.0533 160.314 69.248C159.717 70.3573 159.418 71.8933 159.418 73.856V87.296H122.81V38.4H246.842V87.296H210.106V73.856C210.106 71.808 209.807 70.2293 209.21 69.12C208.613 68.0107 207.503 67.456 205.882 67.456H203.066V87.296C203.066 89.088 203.663 90.624 204.858 91.904C206.138 93.0987 207.674 93.696 209.466 93.696H228.282V128H141.37ZM309.663 129.92C300.276 129.92 290.335 129.024 279.839 127.232C269.428 125.44 260.34 123.093 252.575 120.192V80.256C258.207 85.2053 266.442 89.1307 277.279 92.032C288.116 94.9333 299.338 96.384 310.943 96.384C315.892 96.384 319.86 96.0853 322.847 95.488C325.834 94.8053 327.327 93.6107 327.327 91.904C327.327 89.856 325.492 88.5333 321.823 87.936C318.239 87.2533 312.436 86.784 304.415 86.528C294.09 86.272 285.386 85.632 278.303 84.608C271.306 83.584 265.204 81.28 259.999 77.696C254.879 74.112 252.319 68.6933 252.319 61.44C252.319 56.1493 253.855 51.6267 256.927 47.872C260.084 44.1173 264.266 41.3013 269.471 39.424C274.762 37.4613 280.65 36.48 287.135 36.48C294.73 36.48 301.514 37.8453 307.487 40.576C313.546 43.2213 318.239 46.8053 321.567 51.328C324.895 55.7653 326.559 60.544 326.559 65.664H329.247L329.375 38.4H366.367V79.744H329.247C329.247 76.7573 327.156 74.5813 322.975 73.216C318.794 71.7653 313.802 71.04 307.999 71.04C303.818 71.04 300.447 71.5093 297.887 72.448C295.327 73.3867 294.047 74.5813 294.047 76.032C294.047 77.824 295.796 79.0187 299.295 79.616C302.879 80.128 308.895 80.5973 317.343 81.024C327.668 81.4507 336.372 82.176 343.455 83.2C350.538 84.1387 356.682 86.1867 361.887 89.344C367.092 92.416 369.695 97.024 369.695 103.168C369.695 112.469 363.935 119.253 352.415 123.52C340.895 127.787 326.644 129.92 309.663 129.92ZM374.09 128V93.696H381.258C382.965 93.696 384.458 93.0987 385.738 91.904C387.018 90.624 387.658 89.088 387.658 87.296V79.104C387.658 77.312 387.018 75.8187 385.738 74.624C384.458 73.344 382.965 72.704 381.258 72.704H373.45V38.4H443.85V72.704H431.306C429.599 72.704 428.106 73.344 426.826 74.624C425.546 75.8187 424.906 77.312 424.906 79.104V93.696H442.954C444.831 93.696 446.367 93.0987 447.562 91.904C448.757 90.7093 449.354 88.9173 449.354 86.528V77.952H486.474V128H374.09ZM492.825 128V93.696H499.609C501.145 93.696 502.553 93.2693 503.833 92.416C505.113 91.4773 506.18 90.2827 507.033 88.832L512.409 79.488C513.518 77.5253 513.518 75.904 512.409 74.624C511.3 73.344 509.636 72.704 507.417 72.704H502.937V38.4H579.993C581.273 38.4 582.51 38.784 583.705 39.552C584.9 40.32 585.796 41.3867 586.393 42.752L608.025 88.832C608.708 90.368 609.732 91.5627 611.097 92.416C612.462 93.2693 613.913 93.696 615.449 93.696H621.337V128H558.745V93.696H565.017C566.809 93.696 568.046 93.3973 568.729 92.8C569.497 92.1173 569.54 91.136 568.857 89.856L567.577 87.552H543.513L542.233 89.856C541.55 91.136 541.55 92.1173 542.233 92.8C543.001 93.3973 544.281 93.696 546.073 93.696H552.345V128H492.825ZM544.409 81.152H562.585L559.001 75.52C557.124 72.448 555.673 69.2907 554.649 66.048H552.345C550.98 69.7173 549.486 72.8747 547.865 75.52L544.409 81.152Z" fill="#FFD543"></path></svg>